{"title":"Ek Main Aur Ek Tu  HINDI DVD-RIP XVID - FASTEX","uid":7084769,"size":836764252,"categoryP":"video","categoryS":"hd___movies","magnet":"?xt=urn:btih:7dcc2c092dabb3e919e382c814404301a0300cc0&amp;dn=Ek+Main+Aur+Ek+Tu++HINDI+DVD-RIP+XVID+-+FASTEX&amp;tr=udp%3A%2F%2Ftracker.openbittorrent.com%3A80&amp;tr=udp%3A%2F%2Fopen.demonii.com%3A1337&amp;tr=udp%3A%2F%2Ftracker.coppersurfer.tk%3A6969&amp;tr=udp%3A%2F%2Fexodus.desync.com%3A6969","seeders":0,"leechers":0,"uploader":"1a2w3d","files":2,"time":1331146586,"description":"\n\nEk Main Aur Ek Tu  HINDI DVD-RIP XVID - FASTEX\n\nStoryline\n\nA few drinks too many leads an uptight architect and quick-witted hairstylist to marry in Las Vegas. Can a mistake lead to friendship and love? \n\n\nGenres:\nComedy | Romance \n\n\nCountry: India\n\nLanguage: Hindi \n\nDirected By : Shakun Batra\n\nProduced By : Karan Johar, Ronnie Screwvala, Hiroo Johar\n\nMusic Director : Amit Trivedi\n\nCast : Imran Khan, Kareena Kapoor, Sonia Mehra, Ram Kapoor, Ratna Pathak, Boman Irani, Randhir Kapoor\n\nBanner : Dharma Productions, UTV Motion Pictures\n\nWriters : Ayesha Devitre, Shakun Batra\n\n\nFormat                           : AVI\nFormat/Info                      : Audio Video Interleave\nFormat profile                   : OpenDML\nOverall bit rate                 : 1 800 Kbps\nWriting application              : VirtualDubMod 1.5.10.2 (build 2542/release)\nWriting library                  : VirtualDubMod build 2542/release\n\n\nVideo\nID                               : 0\nFormat                           : MPEG-4 Visual\nFormat profile                   : AdvancedSimple@L5\nFormat settings, BVOP            : Yes\nFormat settings, QPel            : No\nFormat settings, GMC             : No warppoints\nFormat settings, Matrix          : Default (MPEG)\nCodec ID                         : XVID\nCodec ID/Hint                    : XviD\nBit rate                         : 1 411 Kbps\nWidth                            : 640 pixels\nHeight                           : 272 pixels\nDisplay aspect ratio             : 2.35:1\nFrame rate                       : 23.976 fps\nResolution                       : 24 bits\nColorimetry                      : 4:2:0\nScan type                        : Progressive\nBits/(Pixel*Frame)               : 0.338\nStream size                      : 1.03 GiB (78%)\nWriting library                  : XviD 64\n\nAudio\nID                               : 1\nFormat                           : AC-3\nFormat/Info                      : Audio Coding 3\nCodec ID                         : 2000\nBit rate mode                    : Constant\nBit rate                         : 384 Kbps\nChannel(s)                       : 6 channels\nChannel positions                : Front: L C R, Surround: L R, LFE\nSampling rate                    : 48.0 KHz\nStream size                      : 287 MiB (21%)\nAlignment                        : Aligned on interleaves\nInterleave, duration             : 64 ms (1.53 video frames)\nInterleave, preload duration     : 192 ms\n\n\n\n\n\n\n\n\n\n\n\n\n","torrent":{"xt":"urn:btih:7dcc2c092dabb3e919e382c814404301a0300cc0","amp;dn":"Ek+Main+Aur+Ek+Tu++HINDI+DVD-RIP+XVID+-+FASTEX","amp;tr":["udp%3A%2F%2Ftracker.openbittorrent.com%3A80","udp%3A%2F%2Fopen.demonii.com%3A1337","udp%3A%2F%2Ftracker.coppersurfer.tk%3A6969","udp%3A%2F%2Fexodus.desync.com%3A6969"],"infoHash":"7dcc2c092dabb3e919e382c814404301a0300cc0","infoHashBuffer":{"type":"Buffer","data":[125,204,44,9,45,171,179,233,25,227,130,200,20,64,67,1,160,48,12,192]},"announce":[],"urlList":[]}}